<svg width="1024" height="1024" viewBox="0 0 1024 1024" fill="none" xmlns="http://www.w3.org/2000/svg">
<path d="M104 343C104 210.452 211.452 103 344 103H680C812.548 103 920 210.452 920 343V681C920 813.548 812.548 921 680 921H344C211.452 921 104 813.548 104 681V343Z" fill="#202124"/>
<path d="M620.722 451.56C630.536 451.56 640.349 451.56 650.162 451.56C659.976 451.56 669.789 451.56 679.602 451.56C683.442 457.96 687.389 464.467 691.442 471.08C695.496 477.48 699.442 483.88 703.282 490.28C707.336 483.88 711.389 477.48 715.442 471.08C719.496 464.467 723.549 457.96 727.602 451.56C737.202 451.56 746.909 451.56 756.723 451.56C766.536 451.56 776.242 451.56 785.842 451.56C777.522 464.573 768.989 477.693 760.242 490.92C751.709 504.147 743.282 517.373 734.962 530.6C743.709 544.893 752.562 559.293 761.522 573.8C770.482 588.307 779.229 602.707 787.762 617C777.949 617 768.136 617 758.322 617C748.509 617 738.696 617 728.882 617C724.616 609.747 720.242 602.493 715.762 595.24C711.496 587.773 707.229 580.413 702.962 573.16C698.696 580.413 694.216 587.773 689.522 595.24C685.042 602.493 680.669 609.747 676.402 617C666.802 617 657.096 617 647.282 617C637.469 617 627.762 617 618.162 617C626.909 603.133 635.762 589.053 644.722 574.76C653.682 560.253 662.536 546.067 671.282 532.2C662.962 518.973 654.536 505.533 646.002 491.88C637.469 478.227 629.042 464.787 620.722 451.56Z" fill="white"/>
<path d="M525.375 622.12C513.002 622.12 501.482 619.987 490.815 615.72C480.148 611.24 470.868 605.053 462.975 597.16C455.082 589.053 448.895 579.667 444.415 569C440.148 558.333 438.015 546.707 438.015 534.12C438.015 521.533 440.148 509.907 444.415 499.24C448.895 488.573 455.082 479.293 462.975 471.4C470.868 463.507 480.148 457.427 490.815 453.16C501.482 448.68 513.002 446.44 525.375 446.44C537.962 446.44 549.482 448.68 559.935 453.16C570.602 457.427 579.882 463.507 587.775 471.4C595.668 479.293 601.748 488.573 606.015 499.24C610.495 509.907 612.735 521.533 612.735 534.12C612.735 546.707 610.495 558.333 606.015 569C601.748 579.667 595.668 589.053 587.775 597.16C579.882 605.053 570.602 611.24 559.935 615.72C549.482 619.987 537.962 622.12 525.375 622.12ZM525.375 574.44C535.828 574.44 544.148 570.707 550.335 563.24C556.735 555.56 559.935 545.853 559.935 534.12C559.935 522.173 556.735 512.573 550.335 505.32C544.148 497.853 535.828 494.12 525.375 494.12C514.922 494.12 506.495 497.853 500.095 505.32C493.908 512.573 490.815 522.173 490.815 534.12C490.815 545.853 493.908 555.56 500.095 563.24C506.495 570.707 514.922 574.44 525.375 574.44Z" fill="white"/>
<path d="M291.96 399.4C299.853 423.72 307.64 448.253 315.32 473C323.213 497.747 331.107 522.28 339 546.6C346.893 522.28 354.787 497.747 362.68 473C370.573 448.253 378.467 423.72 386.36 399.4C395.533 399.4 404.813 399.4 414.2 399.4C423.587 399.4 432.867 399.4 442.04 399.4C430.52 435.24 418.787 471.507 406.84 508.2C395.107 544.893 383.48 581.16 371.96 617C360.867 617 349.667 617 338.36 617C327.267 617 316.173 617 305.08 617C293.56 581.16 281.827 544.893 269.88 508.2C258.147 471.507 246.52 435.24 235 399.4C244.387 399.4 253.88 399.4 263.48 399.4C273.08 399.4 282.573 399.4 291.96 399.4Z" fill="white"/>
</svg>
