<svg width="4302" height="1073" viewBox="0 0 4302 1073" fill="none" xmlns="http://www.w3.org/2000/svg">
<path d="M936 0C1108.31 0 1248 139.687 1248 312C1248 389.552 1219.7 460.494 1172.87 515.068C1174.94 532.788 1176 550.781 1176 569C1176 847.352 928.861 1073 624 1073C319.139 1073 72 847.352 72 569C72 550.781 73.0605 532.788 75.125 515.068C28.2958 460.494 0 389.552 0 312C0 139.687 139.687 0 312 0C389.41 0 460.236 28.1919 514.771 74.8682C550.079 68.3971 586.605 65 624 65C661.395 65 697.92 68.3972 733.229 74.8682C787.763 28.1916 858.589 0 936 0Z" fill="url(#paint0_linear_103_264)"/>
<line x1="361.283" y1="672.938" x2="360.828" y2="668.964" stroke="white" stroke-width="40" stroke-linecap="round"/>
<line x1="415.771" y1="648.586" x2="419.409" y2="680.378" stroke="white" stroke-width="40" stroke-linecap="round"/>
<line x1="468.214" y1="606.35" x2="480.037" y2="709.676" stroke="white" stroke-width="40" stroke-linecap="round"/>
<line x1="530.887" y1="653.531" x2="530.433" y2="649.557" stroke="white" stroke-width="40" stroke-linecap="round"/>
<line x1="583.102" y1="609.308" x2="591.287" y2="680.841" stroke="white" stroke-width="40" stroke-linecap="round"/>
<line x1="641.911" y1="622.709" x2="645.549" y2="654.502" stroke="white" stroke-width="40" stroke-linecap="round"/>
<line x1="696.172" y1="596.37" x2="704.357" y2="667.903" stroke="white" stroke-width="40" stroke-linecap="round"/>
<line x1="757.026" y1="627.654" x2="756.572" y2="623.68" stroke="white" stroke-width="40" stroke-linecap="round"/>
<line x1="807.422" y1="567.535" x2="819.246" y2="670.861" stroke="white" stroke-width="40" stroke-linecap="round"/>
<line x1="868.05" y1="596.833" x2="871.688" y2="628.625" stroke="white" stroke-width="40" stroke-linecap="round"/>
<line x1="926.631" y1="608.247" x2="926.176" y2="604.273" stroke="white" stroke-width="40" stroke-linecap="round"/>
<circle cx="529" cy="450" r="40" fill="white"/>
<circle cx="719" cy="450" r="40" fill="white"/>
<path d="M1802.4 844.5C1757.6 844.5 1717.07 837.3 1680.8 822.9C1644.53 808.5 1613.33 788.233 1587.2 762.1C1561.07 735.967 1541.07 705.3 1527.2 670.1C1513.33 634.367 1506.4 595.7 1506.4 554.1C1506.4 512.5 1513.6 474.367 1528 439.7C1542.93 404.5 1564 373.833 1591.2 347.7C1618.4 321.567 1650.4 301.3 1687.2 286.9C1724.53 272.5 1765.07 265.3 1808.8 265.3C1839.73 265.3 1868.8 269.3 1896 277.3C1923.73 285.3 1948.8 296.233 1971.2 310.1C1993.6 323.967 2012.53 339.967 2028 358.1L1945.6 445.3C1932.27 432.5 1918.4 421.833 1904 413.3C1890.13 404.767 1875.2 398.1 1859.2 393.3C1843.2 387.967 1826.13 385.3 1808 385.3C1784.53 385.3 1762.93 389.567 1743.2 398.1C1724 406.633 1706.93 418.633 1692 434.1C1677.6 449.033 1666.4 466.9 1658.4 487.7C1650.4 507.967 1646.4 530.1 1646.4 554.1C1646.4 578.1 1650.67 600.5 1659.2 621.3C1667.73 642.1 1679.47 660.233 1694.4 675.7C1709.33 690.633 1726.93 702.633 1747.2 711.7C1768 720.233 1790.13 724.5 1813.6 724.5C1830.13 724.5 1845.6 721.833 1860 716.5C1874.93 711.167 1887.73 703.967 1898.4 694.9C1909.07 685.833 1917.6 675.167 1924 662.9C1930.4 650.1 1933.6 636.5 1933.6 622.1V601.3L1951.2 628.5H1796.8V522.1H2060C2061.07 527.967 2061.87 535.967 2062.4 546.1C2062.93 556.233 2063.2 566.1 2063.2 575.7C2063.73 585.3 2064 592.5 2064 597.3C2064 633.567 2057.33 666.9 2044 697.3C2031.2 727.167 2013.07 753.033 1989.6 774.9C1966.13 796.767 1938.4 813.833 1906.4 826.1C1874.4 838.367 1839.73 844.5 1802.4 844.5ZM2194.58 836.5V411.7H2316.18L2321.78 550.1L2297.78 523.7C2304.18 500.767 2314.58 480.233 2328.98 462.1C2343.91 443.967 2361.25 429.567 2380.98 418.9C2400.71 408.233 2421.78 402.9 2444.18 402.9C2453.78 402.9 2462.58 403.7 2470.58 405.3C2479.11 406.9 2486.85 408.767 2493.78 410.9L2458.58 552.5C2452.71 548.767 2444.71 545.833 2434.58 543.7C2424.98 541.033 2414.85 539.7 2404.18 539.7C2392.45 539.7 2381.51 541.833 2371.38 546.1C2361.25 549.833 2352.71 555.433 2345.78 562.9C2338.85 570.367 2333.25 579.167 2328.98 589.3C2325.25 599.433 2323.38 610.9 2323.38 623.7V836.5H2194.58ZM2605.84 836.5V411.7H2733.84V836.5H2605.84ZM2669.84 327.7C2645.84 327.7 2626.91 322.1 2613.04 310.9C2599.71 299.167 2593.04 282.633 2593.04 261.3C2593.04 242.1 2599.98 226.367 2613.84 214.1C2627.71 201.833 2646.38 195.7 2669.84 195.7C2693.84 195.7 2712.51 201.567 2725.84 213.3C2739.18 224.5 2745.84 240.5 2745.84 261.3C2745.84 281.033 2738.91 297.033 2725.04 309.3C2711.71 321.567 2693.31 327.7 2669.84 327.7ZM2877.31 836.5V762.9L3102.91 473.3V515.7H2877.31V411.7H3229.31V488.5L3015.71 769.3L3012.51 732.5H3236.51V836.5H2877.31ZM3357.16 836.5V762.9L3582.76 473.3V515.7H3357.16V411.7H3709.16V488.5L3495.56 769.3L3492.36 732.5H3716.36V836.5H3357.16ZM4045.99 844.5C4001.72 844.5 3962.25 834.9 3927.59 815.7C3893.45 796.5 3866.25 770.367 3845.99 737.3C3826.25 704.233 3816.39 666.367 3816.39 623.7C3816.39 581.033 3826.25 543.167 3845.99 510.1C3866.25 477.033 3893.45 450.9 3927.59 431.7C3962.25 412.5 4001.72 402.9 4045.99 402.9C4090.25 402.9 4129.45 412.5 4163.59 431.7C4198.25 450.9 4225.45 477.033 4245.19 510.1C4264.92 543.167 4274.79 581.033 4274.79 623.7C4274.79 666.367 4264.92 704.233 4245.19 737.3C4225.45 770.367 4198.25 796.5 4163.59 815.7C4129.45 834.9 4090.25 844.5 4045.99 844.5ZM4045.99 734.1C4065.19 734.1 4082.25 729.3 4097.19 719.7C4112.12 710.1 4123.85 697.033 4132.39 680.5C4140.92 663.967 4144.92 645.033 4144.39 623.7C4144.92 602.367 4140.92 583.433 4132.39 566.9C4123.85 549.833 4112.12 536.5 4097.19 526.9C4082.25 517.3 4065.19 512.5 4045.99 512.5C4026.79 512.5 4009.45 517.3 3993.99 526.9C3979.05 536.5 3967.32 549.833 3958.79 566.9C3950.25 583.433 3946.25 602.367 3946.79 623.7C3946.25 645.033 3950.25 663.967 3958.79 680.5C3967.32 697.033 3979.05 710.1 3993.99 719.7C4009.45 729.3 4026.79 734.1 4045.99 734.1Z" fill="url(#paint1_linear_103_264)"/>
<defs>
<linearGradient id="paint0_linear_103_264" x1="1248" y1="258.431" x2="-36.3314" y2="475.082" gradientUnits="userSpaceOnUse">
<stop stop-color="#ADC0C5"/>
<stop offset="0.129007" stop-color="#E0E9E9"/>
<stop offset="0.243866" stop-color="#DBE5E3"/>
<stop offset="0.516735" stop-color="#ADC2C7"/>
<stop offset="0.61129" stop-color="#B4C9CF"/>
<stop offset="0.865512" stop-color="#D5DCDE"/>
<stop offset="1" stop-color="#B6CFD6"/>
</linearGradient>
<linearGradient id="paint1_linear_103_264" x1="4302" y1="277.349" x2="1738.59" y2="1329.49" gradientUnits="userSpaceOnUse">
<stop stop-color="#ADC0C5"/>
<stop offset="0.129007" stop-color="#E0E9E9"/>
<stop offset="0.243866" stop-color="#DBE5E3"/>
<stop offset="0.516735" stop-color="#ADC2C7"/>
<stop offset="0.61129" stop-color="#B4C9CF"/>
<stop offset="0.865512" stop-color="#D5DCDE"/>
<stop offset="1" stop-color="#B6CFD6"/>
</linearGradient>
</defs>
</svg>
